<?xml version="1.0" encoding="UTF-8" standalone="no"?>
<!-- Created with Inkscape (http://www.inkscape.org/) -->

<svg
   width="24"
   height="24"
   viewBox="0 0 6.3499999 6.35"
   version="1.1"
   id="svg1"
   inkscape:version="1.3 (0e150ed6c4, 2023-07-21)"
   xml:space="preserve"
   sodipodi:docname="cloud.svg"
   xmlns:inkscape="http://www.inkscape.org/namespaces/inkscape"
   xmlns:sodipodi="http://sodipodi.sourceforge.net/DTD/sodipodi-0.dtd"
   xmlns="http://www.w3.org/2000/svg"
   xmlns:svg="http://www.w3.org/2000/svg"
   xmlns:rdf="http://www.w3.org/1999/02/22-rdf-syntax-ns#"
   xmlns:cc="http://creativecommons.org/ns#"
   xmlns:dc="http://purl.org/dc/elements/1.1/"><title
     id="title1">Icon SVG</title><sodipodi:namedview
     id="namedview1"
     pagecolor="#505050"
     bordercolor="#eeeeee"
     borderopacity="1"
     inkscape:showpageshadow="0"
     inkscape:pageopacity="0"
     inkscape:pagecheckerboard="0"
     inkscape:deskcolor="#505050"
     inkscape:document-units="mm"
     inkscape:zoom="23.689562"
     inkscape:cx="11.545169"
     inkscape:cy="12.81155"
     inkscape:window-width="1920"
     inkscape:window-height="1009"
     inkscape:window-x="-8"
     inkscape:window-y="-8"
     inkscape:window-maximized="1"
     inkscape:current-layer="layer1" /><defs
     id="defs1" /><g
     inkscape:label="Layer 1"
     inkscape:groupmode="layer"
     id="layer1"><path
       id="path1"
       style="fill:none;stroke:#000000;stroke-width:0.15893;stroke-linecap:round;stroke-linejoin:round;stroke-dasharray:none;stroke-opacity:1;paint-order:markers stroke fill"
       d="m 3.3176733,0.9897427 a 1.1919813,1.1919813 0 0 0 -1.101263,0.742428 1.1919813,1.1919813 0 0 0 -0.415797,-0.0752 1.1919813,1.1919813 0 0 0 -1.19198105,1.1919809 1.1919813,1.1919813 0 0 0 0.57876305,1.0197803 1.1919813,1.1919813 0 0 0 -0.02142,0.2119334 1.1919813,1.1919813 0 0 0 1.191982,1.1919813 1.1919813,1.1919813 0 0 0 0.714335,-0.2415781 1.1919813,1.1919813 0 0 0 0.818634,0.3291919 1.1919813,1.1919813 0 0 0 1.189497,-1.1567494 1.1919813,1.1919813 0 0 0 0.6609444,-1.0647124 1.1919813,1.1919813 0 0 0 -1.1919815,-1.1919809 1.1919813,1.1919813 0 0 0 -0.06224,0.0045 1.1919813,1.1919813 0 0 0 -1.1694771,-0.961578 z" /></g><metadata
     id="metadata1"><rdf:RDF><cc:Work
         rdf:about=""><dc:title>Icon SVG</dc:title><dc:creator><cc:Agent><dc:title>kar.prahveen</dc:title></cc:Agent></dc:creator></cc:Work></rdf:RDF></metadata></svg>
