<?xml version="1.0" encoding="UTF-8" standalone="no"?>
<!-- Created with Inkscape (http://www.inkscape.org/) -->

<svg
   width="24"
   height="24"
   viewBox="0 0 24 24"
   version="1.1"
   id="svg1"
   inkscape:version="1.3 (0e150ed6c4, 2023-07-21)"
   xml:space="preserve"
   sodipodi:docname="cloud-add.svg"
   inkscape:export-filename="cloud-add.svg"
   inkscape:export-xdpi="96"
   inkscape:export-ydpi="96"
   xmlns:inkscape="http://www.inkscape.org/namespaces/inkscape"
   xmlns:sodipodi="http://sodipodi.sourceforge.net/DTD/sodipodi-0.dtd"
   xmlns="http://www.w3.org/2000/svg"
   xmlns:svg="http://www.w3.org/2000/svg"><sodipodi:namedview
     id="namedview1"
     pagecolor="#505050"
     bordercolor="#eeeeee"
     borderopacity="1"
     inkscape:showpageshadow="0"
     inkscape:pageopacity="0"
     inkscape:pagecheckerboard="0"
     inkscape:deskcolor="#505050"
     inkscape:document-units="px"
     showgrid="true"
     inkscape:zoom="25.96875"
     inkscape:cx="9.0300842"
     inkscape:cy="11.302046"
     inkscape:window-width="1920"
     inkscape:window-height="1009"
     inkscape:window-x="-8"
     inkscape:window-y="-8"
     inkscape:window-maximized="1"
     inkscape:current-layer="layer1"><inkscape:grid
       id="grid1"
       units="px"
       originx="0"
       originy="0"
       spacingx="1"
       spacingy="1"
       empcolor="#0099e5"
       empopacity="0.30196078"
       color="#0099e5"
       opacity="0.14901961"
       empspacing="5"
       dotted="false"
       gridanglex="30"
       gridanglez="30"
       visible="true" /></sodipodi:namedview><defs
     id="defs1" /><g
     inkscape:label="Layer 1"
     inkscape:groupmode="layer"
     id="layer1"><g
       inkscape:label="Layer 1"
       id="layer1-7"
       transform="matrix(0.13805078,0,0,0.13805078,0.04369494,-0.42399157)"><path
         id="path1"
         style="fill:none;stroke:#000000;stroke-width:4;stroke-linecap:round;stroke-linejoin:round;stroke-dasharray:none;stroke-opacity:1;paint-order:markers stroke fill"
         d="m 154.59082,89.999478 c 0,-16.568542 -13.43146,-30 -30,-30 -0.52303,0.02408 -1.04534,0.06186 -1.5664,0.113281 C 120.254,46.050411 107.92347,35.911886 93.590822,35.911587 81.416288,35.939109 70.465612,43.321613 65.874025,54.597134 62.526287,53.3481 58.982335,52.707173 55.409181,52.704556 c -16.568542,0 -30,13.431458 -30,30 0.02089,10.517187 5.547694,20.255424 14.566407,25.666014 -0.338514,1.75834 -0.518922,3.54346 -0.539063,5.33398 0,16.56854 13.431458,30 30,30 6.492894,-0.0277 12.801544,-2.16123 17.978516,-6.08008"
         sodipodi:nodetypes="ccccccccccc" /><path
         id="path5"
         style="fill:none;stroke:#000000;stroke-width:5.28;stroke-linecap:round;stroke-linejoin:round;stroke-dasharray:none;stroke-opacity:1;paint-order:markers stroke fill"
         d="m 100.64001,117.04002 h 52.80002 M 127.04002,90.640006 v 52.800024" /></g></g></svg>
