<?xml version="1.0" encoding="UTF-8" standalone="no"?>
<!-- Created with Inkscape (http://www.inkscape.org/) -->

<svg
   width="512"
   height="512"
   viewBox="0 0 512 512"
   version="1.1"
   id="svg1"
   xml:space="preserve"
   inkscape:version="1.3 (0e150ed6c4, 2023-07-21)"
   sodipodi:docname="p1.svg"
   xmlns:inkscape="http://www.inkscape.org/namespaces/inkscape"
   xmlns:sodipodi="http://sodipodi.sourceforge.net/DTD/sodipodi-0.dtd"
   xmlns="http://www.w3.org/2000/svg"
   xmlns:svg="http://www.w3.org/2000/svg"><sodipodi:namedview
     id="namedview1"
     pagecolor="#505050"
     bordercolor="#eeeeee"
     borderopacity="1"
     inkscape:showpageshadow="0"
     inkscape:pageopacity="0"
     inkscape:pagecheckerboard="0"
     inkscape:deskcolor="#505050"
     inkscape:document-units="px"
     inkscape:zoom="0.81152344"
     inkscape:cx="255.69194"
     inkscape:cy="348.11071"
     inkscape:window-width="1920"
     inkscape:window-height="1009"
     inkscape:window-x="-8"
     inkscape:window-y="-8"
     inkscape:window-maximized="1"
     inkscape:current-layer="layer1"><inkscape:page
       x="0"
       y="0"
       width="512"
       height="512"
       id="page1"
       margin="0"
       bleed="0" /><inkscape:page
       x="522"
       y="0"
       width="633.59997"
       height="1056"
       id="page2" /></sodipodi:namedview><defs
     id="defs1"><inkscape:path-effect
       effect="fillet_chamfer"
       id="path-effect26"
       is_visible="true"
       lpeversion="1"
       nodesatellites_param="F,0,0,1,0,42.512635,0,1 @ F,0,0,1,0,54.342239,0,1 @ F,0,0,1,0,46.209386,0,1 @ F,0,0,1,0,54.342239,0,1"
       radius="0"
       unit="px"
       method="auto"
       mode="F"
       chamfer_steps="1"
       flexible="false"
       use_knot_distance="true"
       apply_no_radius="true"
       apply_with_radius="true"
       only_selected="false"
       hide_knots="false" /><inkscape:path-effect
       effect="fillet_chamfer"
       id="path-effect2"
       is_visible="true"
       lpeversion="1"
       nodesatellites_param="F,0,0,1,0,42.512635,0,1 @ F,0,0,1,0,54.342239,0,1 @ F,0,0,1,0,46.209386,0,1 @ F,0,0,1,0,54.342239,0,1"
       radius="0"
       unit="px"
       method="auto"
       mode="F"
       chamfer_steps="1"
       flexible="false"
       use_knot_distance="true"
       apply_no_radius="true"
       apply_with_radius="true"
       only_selected="false"
       hide_knots="false" /><filter
       style="color-interpolation-filters:sRGB;"
       inkscape:label="Invert"
       id="filter6"
       x="0"
       y="0"
       width="1"
       height="1"><feColorMatrix
         type="hueRotate"
         values="180"
         result="color1"
         id="feColorMatrix5" /><feColorMatrix
         values="-1 0 0 0 1 0 -1 0 0 1 0 0 -1 0 1 -0.21 -0.72 -0.07 2 0 "
         result="fbSourceGraphic"
         id="feColorMatrix6" /><feColorMatrix
         result="fbSourceGraphicAlpha"
         in="fbSourceGraphic"
         values="0 0 0 -1 0 0 0 0 -1 0 0 0 0 -1 0 0 0 0 1 0"
         id="feColorMatrix22" /><feColorMatrix
         id="feColorMatrix23"
         type="hueRotate"
         values="180"
         result="color1"
         in="fbSourceGraphic" /><feColorMatrix
         id="feColorMatrix24"
         values="-1 0 0 0 1 0 -1 0 0 1 0 0 -1 0 1 -0.21 -0.72 -0.07 1 0 "
         result="color2" /></filter><inkscape:path-effect
       effect="fill_between_many"
       method="originald"
       linkedpaths="#path2,0,1|"
       id="path-effect24" /></defs><g
     inkscape:label="Layer 1"
     inkscape:groupmode="layer"
     id="layer1"><rect
       style="fill:#ffffff;fill-opacity:1;stroke:#000000;paint-order:markers stroke fill"
       id="rect3"
       width="512"
       height="512"
       x="-522"
       y="0"
       rx="100"
       transform="translate(522)"
       inkscape:label="bg" /><g
       id="g26"
       inkscape:label="components"
       transform="matrix(1.1936918,0,0,1.2751779,-57.18401,-68.574662)"><path
         id="rect2"
         style="fill:#000000;fill-opacity:1;stroke:#000000;paint-order:markers stroke fill"
         d="m 179.29297,146.63867 a 42.512635,42.512635 0 0 0 -42.51367,42.51172 v 126.18164 a 54.342239,54.342239 0 0 0 54.34179,54.34375 h 152.06055 a 46.209386,46.209386 0 0 0 46.20898,-46.21094 v -61.17773 c -16.73406,1.28788 -35.97606,1.73511 -56.68359,5.11133 -56.68347,9.24185 -94.88281,59.14844 -94.88281,59.14844 0,0 25.26074,-98.5798 94.88281,-124.45704 20.76942,-7.7196 39.41363,-11.90615 55.35547,-13 a 54.342239,54.342239 0 0 0 -53.01367,-42.45117 z m 208.76953,42.45117 a 54.342239,54.342239 0 0 1 1.32812,11.89063 v 61.30664 c 29.07271,-2.23748 50.45341,-7.03688 57.91602,-34.32031 0.70385,-26.80411 -21.74666,-41.44985 -59.24414,-38.87696 z"
         inkscape:label="black-components" /><path
         id="path25"
         style="fill:#ffffff;fill-opacity:1;stroke:#000000;paint-order:markers stroke fill"
         d="m 388.0625,189.08984 c 0,0 -18.58585,-2.02962 -55.35547,13 -95.03878,38.8472 -94.88281,124.45704 -94.88281,124.45704 0,0 38.19934,-49.90659 94.88281,-59.14844 20.70753,-3.37622 39.94953,-3.82345 56.68359,-5.11133 v -61.30664 c -0.004,-4.00035 -0.4491,-7.98805 -1.32812,-11.89063 z"
         sodipodi:nodetypes="cscsccc"
         inkscape:label="white-components" /></g></g></svg>
